<svg xmlns="http://www.w3.org/2000/svg" xml:space="preserve" width="156.685" height="146.582"
  viewBox="0 0 41.456 38.783">
  <path
    d="M14.27 44.673c-.513-.22-1.201-1.042-1.53-1.83-1.836-4.394 3.624-8.807 8.564-6.92 3.536 1.35 4.649 4.811 2.207 6.866-1.994 1.678-7.229 2.745-9.242 1.884m-7.614-4.656C4.71 38.07 5.7 34.924 8.26 34.924c1.391 0 3.49 2.002 3.49 3.33 0 2.676-3.106 3.751-5.094 1.763m17.68-3.469c-.924-.924-1.089-3.464-.292-4.501 1.917-2.498 5.163-1.324 5.163 1.867 0 1.294-2.008 3.446-3.216 3.446-.464 0-1.209-.365-1.656-.812m-13.697-2.335c-1.66-1.55-2.338-3.742-1.73-5.585 1.655-5.015 8.276-.7 6.85 4.464-.678 2.457-3.117 2.991-5.12 1.12m7.605-1.664c-3-3-1.088-8.95 2.58-8.03 1.546.389 2.696 2.457 2.698 4.854.001 1.626-.2 2.162-1.185 3.146-1.494 1.494-2.621 1.502-4.093.03m14.698-6.208c-2.873-1.104-5.359-3.471-5.359-5.103 0-2.64 2.663-4.415 6.125-4.083 4.903.472 7.867 5.87 4.868 8.868-1.415 1.415-2.603 1.482-5.634.318m9.349-1.583c-1.861-.747-1.837-3.75.04-5.065 1.186-.83 3.254-.76 4.068.14 1.379 1.524.605 3.86-1.58 4.773-.757.316-1.428.563-1.49.548-.064-.014-.53-.192-1.038-.396m-2.681-6.92c-1.059-.832-1.14-1.079-.96-2.95.164-1.7.442-2.265 1.664-3.385 2.667-2.445 5.945-1.558 5.945 1.608 0 2.293-2.122 4.962-4.289 5.396-.887.177-1.51 0-2.36-.668M26.248 16.65c-1.357-1.067-1.736-2.838-.938-4.382 1.019-1.97 2.585-2.24 4.119-.706a3.47 3.47 0 0 1 0 4.909c-1.21 1.21-1.827 1.245-3.18.18m6.392-2.21c-2.651-2.65.25-9.033 3.71-8.164 3.12.783 2.957 6.899-.228 8.546-1.644.85-2.326.775-3.482-.381"
    style="fill:#2a46c5;fill-opacity:1;stroke-width:1.15084" transform="translate(-5.632 -6.194)" />
</svg>
